<svg width="24" height="24" viewBox="0 0 24 24" fill="none" xmlns="http://www.w3.org/2000/svg">
<path d="M21.2808 1.3309L1.39341 21.2183C1.2176 21.3941 1.11882 21.6326 1.11882 21.8812C1.11882 22.1298 1.2176 22.3683 1.39341 22.5441C1.56923 22.7199 1.80768 22.8187 2.05633 22.8187C2.30497 22.8187 2.54342 22.7199 2.71924 22.5441L22.6066 2.65673C22.7824 2.48091 22.8812 2.24246 22.8812 1.99382C22.8812 1.74518 22.7824 1.50672 22.6066 1.3309C22.4308 1.15509 22.1923 1.05632 21.9437 1.05632C21.6951 1.05632 21.4566 1.15509 21.2808 1.3309Z" fill="black"/>
<path d="M1.66291 2.98874L21.5503 22.8761C21.7261 23.0519 21.9646 23.1507 22.2132 23.1507C22.4618 23.1507 22.7003 23.0519 22.8761 22.8761C23.0519 22.7003 23.1507 22.4618 23.1507 22.2132C23.1507 21.9646 23.0519 21.7261 22.8761 21.5503L2.98873 1.66292C2.81291 1.4871 2.57446 1.38833 2.32582 1.38833C2.07718 1.38833 1.83872 1.4871 1.6629 1.66292C1.48709 1.83873 1.38832 2.07719 1.38832 2.32583C1.38832 2.57447 1.48709 2.81293 1.66291 2.98874Z" fill="black"/>
</svg>
