<svg id="Capa_1" enable-background="new 0 0 512 512" height="512" viewBox="0 0 512 512" width="512" xmlns="http://www.w3.org/2000/svg" xmlns:xlink="http://www.w3.org/1999/xlink"><linearGradient id="SVGID_1_" gradientUnits="userSpaceOnUse" x1="256" x2="256" y1="512" y2="0"><stop offset="0" stop-color="#009efd"/><stop offset="1" stop-color="#2af598"/></linearGradient><g><g><path d="m0 512h200v-200h-200zm40-160h120v120h-120zm272 160h40v-40h-40zm-192-432h-40v40h40zm-40 352h40v-40h-40zm120-432h-200v200h200zm-40 160h-120v-120h120zm272-80h-40v40h40zm40 272h40v-40h-40zm-196-352h-40v236h-236v40h236v236h40v-236h236v-40h-236zm36 0v200h200v-200zm160 160h-120v-120h120zm0 272v-40h-40v40zm-80-80v40h40v-80h-120v80h40v-40zm80 120h-40v-40h-40v80h120v-80h-40zm-120-80v40h40v-40z" fill="url(#SVGID_1_)"/></g></g></svg>