<svg width="161" height="40" viewBox="0 0 161 40" fill="none" xmlns="http://www.w3.org/2000/svg">
<path d="M8.264 26L9.72 12.8H11.944L15.36 21.8L18.776 12.8H21L22.456 26H20.368L19.312 16.592L16.032 25.504H14.696L11.408 16.592L10.36 26H8.264ZM31.4307 26.256C30.0227 26.256 29.0121 25.968 28.3987 25.392C27.7854 24.8107 27.4787 23.8533 27.4787 22.52V17.808H29.4707V22.072C29.4707 22.9947 29.6174 23.6507 29.9107 24.04C30.2094 24.4293 30.7161 24.624 31.4307 24.624C32.1454 24.624 32.6494 24.4293 32.9427 24.04C33.2414 23.6507 33.3907 22.9947 33.3907 22.072V17.808H35.3828V22.52C35.3828 23.8533 35.0761 24.8107 34.4628 25.392C33.8494 25.968 32.8387 26.256 31.4307 26.256ZM42.8812 26.256C42.1932 26.256 41.5799 26.128 41.0412 25.872C40.5079 25.6107 40.0732 25.2373 39.7372 24.752L40.6172 23.456C40.9319 23.872 41.2812 24.1947 41.6652 24.424C42.0546 24.6533 42.4572 24.768 42.8732 24.768C43.1292 24.768 43.3559 24.7227 43.5532 24.632C43.7506 24.536 43.9079 24.4 44.0252 24.224C44.1426 24.0427 44.2012 23.8293 44.2012 23.584C44.2012 23.328 44.1346 23.128 44.0012 22.984C43.8679 22.84 43.6679 22.7093 43.4012 22.592C43.1346 22.4747 42.7986 22.336 42.3932 22.176C42.0519 22.032 41.7266 21.872 41.4172 21.696C41.1079 21.52 40.8519 21.2987 40.6492 21.032C40.4519 20.76 40.3532 20.416 40.3532 20C40.3532 19.5253 40.4839 19.104 40.7452 18.736C41.0119 18.368 41.3746 18.08 41.8332 17.872C42.2972 17.664 42.8252 17.56 43.4172 17.56C43.8439 17.56 44.2732 17.6373 44.7052 17.792C45.1372 17.9413 45.5692 18.16 46.0012 18.448L45.2812 19.704C44.6572 19.1867 44.0412 18.928 43.4332 18.928C43.0759 18.928 42.7879 19.0133 42.5692 19.184C42.3559 19.3547 42.2492 19.5733 42.2492 19.84C42.2492 20.0587 42.3426 20.2453 42.5292 20.4C42.7159 20.5547 42.9479 20.6907 43.2252 20.808C43.5026 20.9253 43.7799 21.0373 44.0572 21.144C44.4946 21.304 44.8786 21.4747 45.2092 21.656C45.5399 21.8373 45.7986 22.072 45.9852 22.36C46.1719 22.648 46.2652 23.032 46.2652 23.512C46.2652 24.088 46.1266 24.5813 45.8492 24.992C45.5772 25.4027 45.1879 25.7173 44.6812 25.936C44.1746 26.1493 43.5746 26.256 42.8812 26.256ZM51.111 26V17.808H53.103V26H51.111ZM52.111 16.128C51.8923 16.128 51.6897 16.0747 51.503 15.968C51.3217 15.856 51.175 15.7093 51.063 15.528C50.9563 15.3413 50.903 15.136 50.903 14.912C50.903 14.6933 50.9563 14.4933 51.063 14.312C51.175 14.1307 51.3217 13.9867 51.503 13.88C51.6897 13.768 51.8923 13.712 52.111 13.712C52.335 13.712 52.535 13.768 52.711 13.88C52.8923 13.9867 53.0363 14.1307 53.143 14.312C53.255 14.4933 53.311 14.6933 53.311 14.912C53.311 15.136 53.255 15.3413 53.143 15.528C53.0363 15.7093 52.8923 15.856 52.711 15.968C52.535 16.0747 52.335 16.128 52.111 16.128ZM62.4211 26.256C61.8025 26.256 61.2185 26.1467 60.6691 25.928C60.1251 25.704 59.6451 25.3947 59.2291 25C58.8131 24.6053 58.4851 24.144 58.2451 23.616C58.0105 23.088 57.8931 22.5173 57.8931 21.904C57.8931 21.312 58.0051 20.7547 58.2291 20.232C58.4585 19.704 58.7758 19.24 59.1811 18.84C59.5918 18.44 60.0718 18.1253 60.6211 17.896C61.1758 17.6667 61.7731 17.552 62.4131 17.552C62.9465 17.552 63.4558 17.6293 63.9411 17.784C64.4318 17.9387 64.8371 18.1413 65.1571 18.392L64.4451 19.736C63.9758 19.3787 63.3971 19.2 62.7091 19.2C62.1438 19.2 61.6558 19.3253 61.2451 19.576C60.8345 19.8213 60.5198 20.152 60.3011 20.568C60.0825 20.9787 59.9731 21.424 59.9731 21.904C59.9731 22.4107 60.0878 22.8693 60.3171 23.28C60.5465 23.6853 60.8691 24.008 61.2851 24.248C61.7011 24.488 62.1811 24.608 62.7251 24.608C63.0611 24.608 63.3758 24.56 63.6691 24.464C63.9678 24.368 64.2238 24.2373 64.4371 24.072L65.1571 25.416C64.8318 25.6613 64.4291 25.8613 63.9491 26.016C63.4691 26.176 62.9598 26.256 62.4211 26.256ZM76.1019 26V12.8H79.5339C80.8085 12.8 81.8032 13.0827 82.5179 13.648C83.2379 14.208 83.5979 15.0347 83.5979 16.128C83.5979 17.5253 83.0059 18.5013 81.8219 19.056C82.7712 19.2 83.4992 19.5573 84.0059 20.128C84.5125 20.6933 84.7659 21.4373 84.7659 22.36C84.7659 23.1173 84.5952 23.768 84.2539 24.312C83.9125 24.856 83.4245 25.2747 82.7899 25.568C82.1605 25.856 81.4112 26 80.5419 26H76.1019ZM78.1979 18.36H79.0699C79.8805 18.36 80.5019 18.1893 80.9339 17.848C81.3659 17.5067 81.5819 17.0187 81.5819 16.384C81.5819 15.744 81.3685 15.2587 80.9419 14.928C80.5152 14.5973 79.8912 14.432 79.0699 14.432H78.1979V18.36ZM78.1979 24.352H79.8619C80.7525 24.352 81.4272 24.176 81.8859 23.824C82.3499 23.472 82.5819 22.9627 82.5819 22.296C82.5819 21.6187 82.3445 21.096 81.8699 20.728C81.4005 20.36 80.7312 20.176 79.8619 20.176H78.1979V24.352ZM89.2735 26V17.808H91.2655V26H89.2735ZM90.2735 16.128C90.0548 16.128 89.8522 16.0747 89.6655 15.968C89.4842 15.856 89.3375 15.7093 89.2255 15.528C89.1188 15.3413 89.0655 15.136 89.0655 14.912C89.0655 14.6933 89.1188 14.4933 89.2255 14.312C89.3375 14.1307 89.4842 13.9867 89.6655 13.88C89.8522 13.768 90.0548 13.712 90.2735 13.712C90.4975 13.712 90.6975 13.768 90.8735 13.88C91.0548 13.9867 91.1988 14.1307 91.3055 14.312C91.4175 14.4933 91.4735 14.6933 91.4735 14.912C91.4735 15.136 91.4175 15.3413 91.3055 15.528C91.1988 15.7093 91.0548 15.856 90.8735 15.968C90.6975 16.0747 90.4975 16.128 90.2735 16.128ZM95.6636 26L100.736 19.352H96.3116V17.808H104.152L99.0716 24.456H103.912V26H95.6636Z" fill="black"/>
<rect width="45" height="40" transform="matrix(1 0 0 -1 116 40)" fill="black"/>
<path d="M137.088 27.432C136.677 27.2773 136.269 27.1013 135.864 26.904C135.464 26.7013 135.067 26.4773 134.672 26.232C133.605 26.9147 132.432 27.256 131.152 27.256C130.229 27.256 129.365 27.08 128.56 26.728C127.755 26.376 127.048 25.888 126.44 25.264C125.832 24.6347 125.355 23.9067 125.008 23.08C124.667 22.248 124.496 21.3573 124.496 20.408C124.496 19.4587 124.667 18.5707 125.008 17.744C125.355 16.912 125.832 16.184 126.44 15.56C127.048 14.9307 127.755 14.44 128.56 14.088C129.365 13.736 130.229 13.56 131.152 13.56C132.075 13.56 132.939 13.736 133.744 14.088C134.549 14.44 135.256 14.9307 135.864 15.56C136.472 16.184 136.947 16.912 137.288 17.744C137.635 18.5707 137.808 19.4587 137.808 20.408C137.808 21.0053 137.736 21.5867 137.592 22.152C137.453 22.7173 137.243 23.256 136.96 23.768C137.243 23.8693 137.523 23.9653 137.8 24.056C138.083 24.1413 138.363 24.2213 138.64 24.296L137.088 27.432ZM131.152 23.864C131.232 23.864 131.315 23.8613 131.4 23.856C131.485 23.8453 131.563 23.8373 131.632 23.832C131.349 23.5547 131.083 23.272 130.832 22.984C130.581 22.6907 130.352 22.392 130.144 22.088L131.632 20.216C132.277 20.9147 132.976 21.5227 133.728 22.04C133.824 21.7893 133.896 21.5253 133.944 21.248C133.992 20.9707 134.016 20.6907 134.016 20.408C134.016 19.8853 133.947 19.4133 133.808 18.992C133.675 18.5653 133.483 18.2 133.232 17.896C132.981 17.592 132.68 17.36 132.328 17.2C131.976 17.0347 131.584 16.952 131.152 16.952C130.72 16.952 130.328 17.0347 129.976 17.2C129.624 17.36 129.323 17.592 129.072 17.896C128.821 18.2 128.627 18.5653 128.488 18.992C128.355 19.4133 128.288 19.8853 128.288 20.408C128.288 20.9307 128.355 21.4053 128.488 21.832C128.627 22.2533 128.821 22.616 129.072 22.92C129.323 23.224 129.624 23.4587 129.976 23.624C130.328 23.784 130.72 23.864 131.152 23.864ZM140.537 27V13.8H145.753C146.681 13.8 147.489 13.9653 148.177 14.296C148.865 14.6213 149.398 15.096 149.777 15.72C150.155 16.3387 150.345 17.0907 150.345 17.976C150.345 18.6053 150.246 19.1813 150.049 19.704C149.851 20.2213 149.563 20.6747 149.185 21.064C148.811 21.448 148.35 21.7573 147.801 21.992L152.073 27H147.609L144.065 22.424H144.057V27H140.537ZM144.057 19.512H144.601C145.049 19.512 145.422 19.4587 145.721 19.352C146.025 19.2453 146.251 19.0853 146.401 18.872C146.555 18.6533 146.633 18.3867 146.633 18.072C146.633 17.5867 146.459 17.2213 146.113 16.976C145.771 16.7253 145.267 16.6 144.601 16.6H144.057V19.512Z" fill="white"/>
<rect x="1" y="1" width="159" height="38" stroke="black" stroke-width="2"/>
</svg>
