<svg width="152" height="40" viewBox="0 0 152 40" fill="none" xmlns="http://www.w3.org/2000/svg">
<path d="M26.312 26.256C25.6773 26.256 25.1013 26.176 24.584 26.016C24.0667 25.856 23.6107 25.6587 23.216 25.424C22.8267 25.184 22.4987 24.944 22.232 24.704C21.9653 24.464 21.7627 24.2667 21.624 24.112L22.728 22.416C22.8773 22.5707 23.064 22.7547 23.288 22.968C23.5173 23.1813 23.784 23.392 24.088 23.6C24.392 23.8027 24.7333 23.9733 25.112 24.112C25.4907 24.2453 25.9093 24.312 26.368 24.312C26.8 24.312 27.1867 24.24 27.528 24.096C27.8693 23.952 28.1413 23.7387 28.344 23.456C28.5467 23.168 28.648 22.8133 28.648 22.392C28.648 22.024 28.5707 21.7093 28.416 21.448C28.2667 21.1867 28.0507 20.96 27.768 20.768C27.4853 20.5707 27.1493 20.384 26.76 20.208C26.3707 20.0267 25.936 19.84 25.456 19.648C25.1147 19.504 24.776 19.336 24.44 19.144C24.1093 18.952 23.808 18.7227 23.536 18.456C23.2693 18.1893 23.056 17.8827 22.896 17.536C22.736 17.184 22.656 16.7787 22.656 16.32C22.656 15.824 22.752 15.352 22.944 14.904C23.1413 14.4507 23.4187 14.048 23.776 13.696C24.1333 13.344 24.5573 13.0667 25.048 12.864C25.544 12.6613 26.096 12.56 26.704 12.56C27.2 12.56 27.6827 12.632 28.152 12.776C28.6213 12.92 29.048 13.1067 29.432 13.336C29.8213 13.5653 30.1387 13.8107 30.384 14.072L29.472 15.664C29.2693 15.456 29.0267 15.2613 28.744 15.08C28.4667 14.8933 28.1573 14.744 27.816 14.632C27.4747 14.52 27.1173 14.464 26.744 14.464C26.3067 14.464 25.936 14.5493 25.632 14.72C25.328 14.8907 25.0933 15.1147 24.928 15.392C24.768 15.664 24.688 15.96 24.688 16.28C24.688 16.5573 24.744 16.7947 24.856 16.992C24.9733 17.184 25.1333 17.3493 25.336 17.488C25.5387 17.6267 25.7707 17.7547 26.032 17.872C26.2987 17.984 26.5787 18.096 26.872 18.208C27.4533 18.4427 27.9893 18.6827 28.48 18.928C28.976 19.168 29.4053 19.4427 29.768 19.752C30.1307 20.056 30.4107 20.4187 30.608 20.84C30.8107 21.256 30.912 21.7573 30.912 22.344C30.912 23.1653 30.7147 23.8693 30.32 24.456C29.9307 25.0427 29.3893 25.4907 28.696 25.8C28.008 26.104 27.2133 26.256 26.312 26.256ZM41.9939 26.256C41.0712 26.256 40.2072 26.08 39.4019 25.728C38.5965 25.376 37.8899 24.888 37.2819 24.264C36.6739 23.6347 36.1965 22.9067 35.8499 22.08C35.5085 21.248 35.3379 20.3573 35.3379 19.408C35.3379 18.4533 35.5085 17.5627 35.8499 16.736C36.1965 15.9093 36.6739 15.184 37.2819 14.56C37.8899 13.9307 38.5965 13.44 39.4019 13.088C40.2072 12.736 41.0712 12.56 41.9939 12.56C42.9165 12.56 43.7805 12.736 44.5859 13.088C45.3912 13.44 46.0979 13.9307 46.7059 14.56C47.3139 15.184 47.7885 15.9093 48.1299 16.736C48.4765 17.5627 48.6499 18.4533 48.6499 19.408C48.6499 20.3573 48.4765 21.248 48.1299 22.08C47.7885 22.9067 47.3139 23.6347 46.7059 24.264C46.0979 24.888 45.3912 25.376 44.5859 25.728C43.7805 26.08 42.9165 26.256 41.9939 26.256ZM41.9939 24.24C42.6232 24.24 43.2045 24.12 43.7379 23.88C44.2765 23.6347 44.7432 23.296 45.1379 22.864C45.5379 22.4267 45.8472 21.9147 46.0659 21.328C46.2845 20.7413 46.3939 20.1013 46.3939 19.408C46.3939 18.7147 46.2845 18.0747 46.0659 17.488C45.8472 16.9013 45.5379 16.392 45.1379 15.96C44.7432 15.5227 44.2765 15.184 43.7379 14.944C43.2045 14.6987 42.6232 14.576 41.9939 14.576C41.3699 14.576 40.7885 14.6987 40.2499 14.944C39.7165 15.184 39.2499 15.5227 38.8499 15.96C38.4552 16.392 38.1485 16.9013 37.9299 17.488C37.7112 18.0747 37.6019 18.7147 37.6019 19.408C37.6019 20.1013 37.7112 20.7413 37.9299 21.328C38.1485 21.9147 38.4552 22.4267 38.8499 22.864C39.2499 23.296 39.7165 23.6347 40.2499 23.88C40.7885 24.12 41.3699 24.24 41.9939 24.24ZM58.6572 26.256C57.0519 26.256 55.8412 25.84 55.0252 25.008C54.2092 24.176 53.8012 22.9413 53.8012 21.304V12.8H55.8892V20.736C55.8892 21.936 56.1106 22.8133 56.5532 23.368C57.0012 23.9227 57.7026 24.2 58.6572 24.2C59.6119 24.2 60.3106 23.9227 60.7533 23.368C61.2013 22.8133 61.4253 21.936 61.4253 20.736V12.8H63.5212V21.304C63.5212 22.9413 63.1132 24.176 62.2972 25.008C61.4812 25.84 60.2679 26.256 58.6572 26.256ZM69.5655 26V12.8H71.6615L77.8535 22.488V12.8H79.9495V26H77.8535L71.6615 16.32V26H69.5655ZM86.1999 26V12.8H89.5919C90.5305 12.8 91.4025 12.968 92.2079 13.304C93.0132 13.64 93.7172 14.1093 94.3199 14.712C94.9279 15.3093 95.3999 16.0107 95.7359 16.816C96.0772 17.616 96.2479 18.48 96.2479 19.408C96.2479 20.336 96.0799 21.2 95.7439 22C95.4079 22.8 94.9359 23.5013 94.3279 24.104C93.7252 24.7013 93.0185 25.168 92.2079 25.504C91.4025 25.8347 90.5305 26 89.5919 26H86.1999ZM88.2959 24.12H89.3679C90.0292 24.12 90.6399 24.0027 91.1999 23.768C91.7652 23.5333 92.2559 23.2027 92.6719 22.776C93.0932 22.3493 93.4185 21.8507 93.6479 21.28C93.8825 20.704 93.9999 20.0773 93.9999 19.4C93.9999 18.728 93.8825 18.104 93.6479 17.528C93.4185 16.952 93.0932 16.4533 92.6719 16.032C92.2559 15.6053 91.7652 15.2747 91.1999 15.04C90.6399 14.8 90.0292 14.68 89.3679 14.68H88.2959V24.12Z" fill="black"/>
<rect width="25" height="25" transform="matrix(1 0 0 -1 106 33)" fill="black"/>
<path d="M117.816 25.324C117.508 25.208 117.202 25.076 116.898 24.928C116.598 24.776 116.3 24.608 116.004 24.424C115.204 24.936 114.324 25.192 113.364 25.192C112.672 25.192 112.024 25.06 111.42 24.796C110.816 24.532 110.286 24.166 109.83 23.698C109.374 23.226 109.016 22.68 108.756 22.06C108.5 21.436 108.372 20.768 108.372 20.056C108.372 19.344 108.5 18.678 108.756 18.058C109.016 17.434 109.374 16.888 109.83 16.42C110.286 15.948 110.816 15.58 111.42 15.316C112.024 15.052 112.672 14.92 113.364 14.92C114.056 14.92 114.704 15.052 115.308 15.316C115.912 15.58 116.442 15.948 116.898 16.42C117.354 16.888 117.71 17.434 117.966 18.058C118.226 18.678 118.356 19.344 118.356 20.056C118.356 20.504 118.302 20.94 118.194 21.364C118.09 21.788 117.932 22.192 117.72 22.576C117.932 22.652 118.142 22.724 118.35 22.792C118.562 22.856 118.772 22.916 118.98 22.972L117.816 25.324ZM113.364 22.648C113.424 22.648 113.486 22.646 113.55 22.642C113.614 22.634 113.672 22.628 113.724 22.624C113.512 22.416 113.312 22.204 113.124 21.988C112.936 21.768 112.764 21.544 112.608 21.316L113.724 19.912C114.208 20.436 114.732 20.892 115.296 21.28C115.368 21.092 115.422 20.894 115.458 20.686C115.494 20.478 115.512 20.268 115.512 20.056C115.512 19.664 115.46 19.31 115.356 18.994C115.256 18.674 115.112 18.4 114.924 18.172C114.736 17.944 114.51 17.77 114.246 17.65C113.982 17.526 113.688 17.464 113.364 17.464C113.04 17.464 112.746 17.526 112.482 17.65C112.218 17.77 111.992 17.944 111.804 18.172C111.616 18.4 111.47 18.674 111.366 18.994C111.266 19.31 111.216 19.664 111.216 20.056C111.216 20.448 111.266 20.804 111.366 21.124C111.47 21.44 111.616 21.712 111.804 21.94C111.992 22.168 112.218 22.344 112.482 22.468C112.746 22.588 113.04 22.648 113.364 22.648ZM120.403 25V15.1H124.315C125.011 15.1 125.617 15.224 126.133 15.472C126.649 15.716 127.049 16.072 127.333 16.54C127.617 17.004 127.759 17.568 127.759 18.232C127.759 18.704 127.685 19.136 127.537 19.528C127.389 19.916 127.173 20.256 126.889 20.548C126.609 20.836 126.263 21.068 125.851 21.244L129.055 25H125.707L123.049 21.568H123.043V25H120.403ZM123.043 19.384H123.451C123.787 19.384 124.067 19.344 124.291 19.264C124.519 19.184 124.689 19.064 124.801 18.904C124.917 18.74 124.975 18.54 124.975 18.304C124.975 17.94 124.845 17.666 124.585 17.482C124.329 17.294 123.951 17.2 123.451 17.2H123.043V19.384Z" fill="white"/>
<rect x="1" y="1" width="150" height="38" stroke="black" stroke-width="2"/>
</svg>
