<svg width="150" height="50" viewBox="0 0 150 50" fill="none" xmlns="http://www.w3.org/2000/svg">
<rect width="25" height="19" transform="matrix(1 0 0 -1 87 35)" fill="black"/>
<rect x="42" y="11" width="33" height="30" fill="url(#paint0_linear_31_71)"/>
<path d="M26.05 29L27.334 19.1H28.3L31.21 26.846L34.126 19.1H35.092L36.376 29H35.464L34.366 20.798L31.54 28.394H30.886L28.06 20.798L26.962 29H26.05ZM41.1959 29.192C40.2639 29.192 39.5979 28.982 39.1979 28.562C38.7979 28.142 38.5979 27.44 38.5979 26.456V22.856H39.4739V26.3C39.4739 27.076 39.6059 27.63 39.8699 27.962C40.1339 28.29 40.5759 28.454 41.1959 28.454C41.8199 28.454 42.2619 28.29 42.5219 27.962C42.7859 27.63 42.9179 27.076 42.9179 26.3V22.856H43.7939V26.456C43.7939 27.44 43.5939 28.142 43.1939 28.562C42.7979 28.982 42.1319 29.192 41.1959 29.192ZM47.8196 29.192C47.3116 29.192 46.8636 29.07 46.4756 28.826C46.0876 28.578 45.7856 28.228 45.5696 27.776L46.0376 27.272C46.2296 27.664 46.4796 27.97 46.7876 28.19C47.0956 28.406 47.4376 28.514 47.8136 28.514C48.0656 28.514 48.2956 28.462 48.5036 28.358C48.7156 28.254 48.8836 28.106 49.0076 27.914C49.1356 27.718 49.1996 27.486 49.1996 27.218C49.1996 26.974 49.1396 26.782 49.0196 26.642C48.9036 26.502 48.7316 26.382 48.5036 26.282C48.2796 26.178 47.9996 26.062 47.6636 25.934C47.4036 25.83 47.1516 25.712 46.9076 25.58C46.6636 25.448 46.4616 25.282 46.3016 25.082C46.1456 24.878 46.0676 24.62 46.0676 24.308C46.0676 23.992 46.1516 23.712 46.3196 23.468C46.4876 23.22 46.7196 23.026 47.0156 22.886C47.3116 22.742 47.6476 22.67 48.0236 22.67C48.3676 22.67 48.6896 22.744 48.9896 22.892C49.2936 23.04 49.5656 23.25 49.8056 23.522L49.4036 24.032C49.0356 23.548 48.5776 23.306 48.0296 23.306C47.6936 23.306 47.4196 23.394 47.2076 23.57C46.9996 23.746 46.8956 23.976 46.8956 24.26C46.8956 24.464 46.9616 24.634 47.0936 24.77C47.2256 24.906 47.3976 25.022 47.6096 25.118C47.8256 25.214 48.0576 25.31 48.3056 25.406C48.6656 25.542 48.9776 25.678 49.2416 25.814C49.5096 25.95 49.7176 26.124 49.8656 26.336C50.0136 26.544 50.0876 26.828 50.0876 27.188C50.0876 27.6 49.9916 27.956 49.7996 28.256C49.6076 28.556 49.3396 28.788 48.9956 28.952C48.6556 29.112 48.2636 29.192 47.8196 29.192ZM52.159 29V22.856H53.035V29H52.159ZM52.603 21.626C52.495 21.626 52.397 21.6 52.309 21.548C52.225 21.496 52.157 21.426 52.105 21.338C52.053 21.25 52.027 21.154 52.027 21.05C52.027 20.946 52.053 20.852 52.105 20.768C52.157 20.68 52.225 20.61 52.309 20.558C52.397 20.506 52.495 20.48 52.603 20.48C52.707 20.48 52.801 20.506 52.885 20.558C52.969 20.61 53.037 20.678 53.089 20.762C53.145 20.846 53.173 20.942 53.173 21.05C53.173 21.154 53.145 21.25 53.089 21.338C53.037 21.426 52.969 21.496 52.885 21.548C52.801 21.6 52.707 21.626 52.603 21.626ZM58.478 29.192C58.018 29.192 57.586 29.112 57.182 28.952C56.778 28.788 56.424 28.558 56.12 28.262C55.816 27.966 55.578 27.62 55.406 27.224C55.234 26.828 55.148 26.396 55.148 25.928C55.148 25.464 55.232 25.034 55.4 24.638C55.568 24.242 55.802 23.896 56.102 23.6C56.406 23.304 56.76 23.074 57.164 22.91C57.568 22.746 58.006 22.664 58.478 22.664C58.882 22.664 59.266 22.724 59.63 22.844C59.994 22.964 60.308 23.13 60.572 23.342L60.212 23.93C59.764 23.582 59.22 23.408 58.58 23.408C58.076 23.408 57.632 23.52 57.248 23.744C56.868 23.964 56.572 24.266 56.36 24.65C56.148 25.03 56.042 25.456 56.042 25.928C56.042 26.404 56.15 26.834 56.366 27.218C56.582 27.598 56.882 27.898 57.266 28.118C57.65 28.338 58.09 28.448 58.586 28.448C58.898 28.448 59.192 28.404 59.468 28.316C59.748 28.224 59.994 28.094 60.206 27.926L60.572 28.514C60.304 28.722 59.99 28.886 59.63 29.006C59.27 29.13 58.886 29.192 58.478 29.192ZM65.4635 29V19.1H67.5575C68.5215 19.1 69.2695 19.316 69.8015 19.748C70.3375 20.176 70.6055 20.794 70.6055 21.602C70.6055 22.69 70.1295 23.434 69.1775 23.834C69.9135 23.938 70.4815 24.208 70.8815 24.644C71.2815 25.076 71.4815 25.644 71.4815 26.348C71.4815 26.904 71.3575 27.38 71.1095 27.776C70.8615 28.172 70.5055 28.476 70.0415 28.688C69.5775 28.896 69.0235 29 68.3795 29H65.4635ZM66.3755 23.552H67.3955C68.1475 23.552 68.7255 23.392 69.1295 23.072C69.5335 22.748 69.7355 22.288 69.7355 21.692C69.7355 21.088 69.5335 20.626 69.1295 20.306C68.7255 19.986 68.1475 19.826 67.3955 19.826H66.3755V23.552ZM66.3755 28.256H68.1395C68.9115 28.256 69.5055 28.09 69.9215 27.758C70.3415 27.422 70.5515 26.944 70.5515 26.324C70.5515 25.704 70.3395 25.222 69.9155 24.878C69.4955 24.53 68.9035 24.356 68.1395 24.356H66.3755V28.256ZM73.3348 29V22.856H74.2108V29H73.3348ZM73.7788 21.626C73.6708 21.626 73.5728 21.6 73.4848 21.548C73.4008 21.496 73.3328 21.426 73.2808 21.338C73.2288 21.25 73.2028 21.154 73.2028 21.05C73.2028 20.946 73.2288 20.852 73.2808 20.768C73.3328 20.68 73.4008 20.61 73.4848 20.558C73.5728 20.506 73.6708 20.48 73.7788 20.48C73.8828 20.48 73.9768 20.506 74.0608 20.558C74.1448 20.61 74.2128 20.678 74.2648 20.762C74.3208 20.846 74.3488 20.942 74.3488 21.05C74.3488 21.154 74.3208 21.25 74.2648 21.338C74.2128 21.426 74.1448 21.496 74.0608 21.548C73.9768 21.6 73.8828 21.626 73.7788 21.626ZM75.9878 29L80.5358 23.576H76.4558V22.856H82.1318L77.5778 28.28H81.9938V29H75.9878Z" fill="black"/>
<path d="M99.17 30.324C98.854 30.204 98.538 30.064 98.222 29.904C97.91 29.744 97.598 29.564 97.286 29.364C96.466 29.916 95.55 30.192 94.538 30.192C93.842 30.192 93.192 30.062 92.588 29.802C91.984 29.538 91.454 29.172 90.998 28.704C90.546 28.236 90.192 27.692 89.936 27.072C89.68 26.452 89.552 25.784 89.552 25.068C89.552 24.352 89.68 23.682 89.936 23.058C90.196 22.434 90.554 21.888 91.01 21.42C91.466 20.948 91.996 20.58 92.6 20.316C93.204 20.052 93.852 19.92 94.544 19.92C95.24 19.92 95.89 20.052 96.494 20.316C97.098 20.58 97.628 20.948 98.084 21.42C98.54 21.888 98.896 22.434 99.152 23.058C99.408 23.678 99.536 24.344 99.536 25.056C99.536 25.608 99.452 26.136 99.284 26.64C99.12 27.144 98.878 27.604 98.558 28.02C98.81 28.136 99.058 28.242 99.302 28.338C99.546 28.434 99.788 28.518 100.028 28.59L99.17 30.324ZM94.538 28.32C94.73 28.32 94.916 28.296 95.096 28.248C95.28 28.2 95.448 28.134 95.6 28.05C95.344 27.826 95.098 27.594 94.862 27.354C94.63 27.114 94.416 26.868 94.22 26.616L95.048 25.584C95.576 26.14 96.152 26.63 96.776 27.054C96.992 26.786 97.156 26.48 97.268 26.136C97.384 25.792 97.442 25.432 97.442 25.056C97.442 24.58 97.37 24.144 97.226 23.748C97.086 23.348 96.886 23.002 96.626 22.71C96.37 22.418 96.064 22.192 95.708 22.032C95.356 21.872 94.968 21.792 94.544 21.792C94.124 21.792 93.736 21.872 93.38 22.032C93.028 22.192 92.722 22.42 92.462 22.716C92.202 23.008 92 23.354 91.856 23.754C91.716 24.15 91.646 24.588 91.646 25.068C91.646 25.548 91.716 25.986 91.856 26.382C91.996 26.778 92.194 27.122 92.45 27.414C92.71 27.702 93.016 27.926 93.368 28.086C93.724 28.242 94.114 28.32 94.538 28.32ZM101.846 30V20.1H105.218C105.894 20.1 106.48 20.22 106.976 20.46C107.476 20.696 107.862 21.038 108.134 21.486C108.41 21.93 108.548 22.466 108.548 23.094C108.548 23.59 108.46 24.038 108.284 24.438C108.108 24.834 107.856 25.168 107.528 25.44C107.2 25.712 106.802 25.914 106.334 26.046L109.574 30H107.108L104.252 26.268H103.79V30H101.846ZM103.79 24.648H104.618C105.022 24.648 105.364 24.59 105.644 24.474C105.924 24.358 106.138 24.188 106.286 23.964C106.438 23.736 106.514 23.464 106.514 23.148C106.514 22.668 106.348 22.3 106.016 22.044C105.688 21.784 105.222 21.654 104.618 21.654H103.79V24.648Z" fill="white"/>
<rect x="1.5" y="1.5" width="147" height="47" stroke="black" stroke-width="3"/>
<defs>
<linearGradient id="paint0_linear_31_71" x1="87.54" y1="93.8" x2="87.54" y2="17" gradientUnits="userSpaceOnUse">
<stop stop-color="#009EFD"/>
<stop offset="1" stop-color="#2AF598"/>
</linearGradient>
</defs>
</svg>
