<svg width="30" height="20" viewBox="0 0 30 20" fill="none" xmlns="http://www.w3.org/2000/svg">
<path d="M0 0.9375C0 0.68886 0.0987721 0.450402 0.274587 0.274587C0.450403 0.0987718 0.68886 0 0.9375 0H29.0625C29.3111 0 29.5496 0.0987718 29.7254 0.274587C29.9012 0.450402 30 0.68886 30 0.9375C30 1.18614 29.9012 1.4246 29.7254 1.60041C29.5496 1.77623 29.3111 1.875 29.0625 1.875H0.9375C0.68886 1.875 0.450403 1.77623 0.274587 1.60041C0.0987721 1.4246 0 1.18614 0 0.9375ZM29.0625 8.72572H0.9375C0.68886 8.72572 0.450403 8.82449 0.274587 9.00031C0.0987721 9.17613 0 9.41458 0 9.66322C0 9.91186 0.0987721 10.1503 0.274587 10.3261C0.450403 10.502 0.68886 10.6007 0.9375 10.6007H29.0625C29.3111 10.6007 29.5496 10.502 29.7254 10.3261C29.9012 10.1503 30 9.91186 30 9.66322C30 9.41458 29.9012 9.17613 29.7254 9.00031C29.5496 8.82449 29.3111 8.72572 29.0625 8.72572ZM15 17.4514H0.9375C0.68886 17.4514 0.450403 17.5502 0.274587 17.726C0.0987721 17.9018 0 18.1403 0 18.3889C0 18.6376 0.0987721 18.876 0.274587 19.0519C0.450403 19.2277 0.68886 19.3264 0.9375 19.3264H15C15.2486 19.3264 15.4871 19.2277 15.6629 19.0519C15.8387 18.876 15.9375 18.6376 15.9375 18.3889C15.9375 18.1403 15.8387 17.9018 15.6629 17.726C15.4871 17.5502 15.2486 17.4514 15 17.4514Z" fill="black"/>
</svg>
