<svg width="259" height="457" viewBox="0 0 259 457" fill="none" xmlns="http://www.w3.org/2000/svg">
<g clip-path="url(#clip0_29_25)">
<path d="M217.914 457.176H41.4889C19.977 457.176 2.47559 439.675 2.47559 418.162V39.0133C2.47558 17.5014 19.977 0 41.4889 0H217.914C239.425 0 256.927 17.5014 256.927 39.0133V418.162C256.927 439.675 239.425 457.176 217.914 457.176V457.176Z" fill="#3F3D56"/>
<path d="M256.927 139.464C256.016 139.464 255.276 140.204 255.276 141.114V193.928C255.276 194.839 256.016 195.579 256.927 195.579C257.837 195.579 258.577 194.839 258.577 193.928V141.114C258.577 140.204 257.837 139.464 256.927 139.464Z" fill="#3F3D56"/>
<path d="M253.213 39.0136V418.156C253.213 436.88 238.64 452.197 220.213 453.385H220.204C219.932 453.401 219.66 453.418 219.379 453.426C218.892 453.451 218.405 453.459 217.91 453.459C217.91 453.459 216.095 453.327 212.777 453.08C209.427 452.832 204.55 452.461 198.468 451.974C196.644 451.833 194.721 451.677 192.691 451.512C188.648 451.182 184.208 450.818 179.446 450.406C177.548 450.249 175.584 450.076 173.579 449.902C163.33 449.019 151.851 447.988 139.745 446.816C137.698 446.626 135.635 446.428 133.556 446.222C133.011 446.164 132.458 446.115 131.905 446.057C123.273 445.207 6.18945 422.579 6.18945 418.156V39.0136C6.18944 19.5135 21.9926 3.71043 41.4927 3.71043H62.569C65.9359 3.71043 68.6426 6.33465 68.9315 9.69333C68.9562 9.91616 68.981 10.1389 69.0222 10.3618C69.6329 13.737 72.7275 16.0888 76.1604 16.0888H183.242C186.675 16.0888 189.77 13.737 190.381 10.3618C190.422 10.1389 190.447 9.91616 190.471 9.69333C190.76 6.33465 193.467 3.71043 196.834 3.71043H217.91C237.41 3.71043 253.213 19.5135 253.213 39.0136H253.213Z" fill="white"/>
<path d="M1.65045 99.8526C0.7402 99.8526 0 100.593 0 101.503V114.707C0 115.617 0.74021 116.357 1.65045 116.357C2.56069 116.357 3.3009 115.617 3.3009 114.707V101.503C3.3009 100.593 2.56069 99.8526 1.65045 99.8526Z" fill="#3F3D56"/>
<path d="M1.65045 139.464C0.7402 139.464 0 140.204 0 141.114V166.696C0 167.606 0.74021 168.346 1.65045 168.346C2.56069 168.346 3.3009 167.606 3.3009 166.696V141.114C3.3009 140.204 2.56069 139.464 1.65045 139.464Z" fill="#3F3D56"/>
<path d="M1.65045 175.773C0.7402 175.773 0 176.514 0 177.424V203.006C0 203.916 0.74021 204.656 1.65045 204.656C2.56069 204.656 3.3009 203.916 3.3009 203.006V177.424C3.3009 176.514 2.56069 175.773 1.65045 175.773Z" fill="#3F3D56"/>
<path d="M61.9945 9.49024H30.4311C30.2597 9.49024 30.1208 9.62913 30.1208 9.80045V13.3062C30.1208 13.4775 30.2597 13.6164 30.4311 13.6164H61.9945C62.1658 13.6164 62.3047 13.4775 62.3047 13.3062V9.80045C62.3047 9.62913 62.1658 9.49024 61.9945 9.49024Z" fill="#E6E6E6"/>
<path d="M202.049 13.6164C203.872 13.6164 205.35 12.1385 205.35 10.3155C205.35 8.49242 203.872 7.01456 202.049 7.01456C200.226 7.01456 198.748 8.49242 198.748 10.3155C198.748 12.1385 200.226 13.6164 202.049 13.6164Z" fill="#E6E6E6"/>
<path d="M211.127 13.6164C212.95 13.6164 214.428 12.1385 214.428 10.3155C214.428 8.49242 212.95 7.01456 211.127 7.01456C209.304 7.01456 207.826 8.49242 207.826 10.3155C207.826 12.1385 209.304 13.6164 211.127 13.6164Z" fill="#E6E6E6"/>
<path d="M220.204 13.6164C222.027 13.6164 223.505 12.1385 223.505 10.3155C223.505 8.49242 222.027 7.01456 220.204 7.01456C218.381 7.01456 216.903 8.49242 216.903 10.3155C216.903 12.1385 218.381 13.6164 220.204 13.6164Z" fill="#E6E6E6"/>
<path opacity="0.4" d="M168.912 260.191C175.54 260.191 180.912 254.818 180.912 248.191C180.912 241.563 175.54 236.191 168.912 236.191C162.285 236.191 156.912 241.563 156.912 248.191C156.912 254.818 162.285 260.191 168.912 260.191Z" fill="#6C63FF"/>
<path d="M198.876 381.698H58.8757C56.6702 381.698 54.8757 379.904 54.8757 377.698C54.8757 375.493 56.6702 373.698 58.8757 373.698H198.876C201.081 373.698 202.876 375.493 202.876 377.698C202.876 379.904 201.081 381.698 198.876 381.698Z" fill="#E6E6E6"/>
<path d="M217.269 64.1906H41.3086C30.8186 64.1906 22.2886 72.7206 22.2886 83.2106V180.171C22.2886 190.661 30.8186 199.191 41.3086 199.191H217.269C227.759 199.191 236.289 190.661 236.289 180.171V83.2105C236.289 72.7206 227.759 64.1906 217.269 64.1906V64.1906ZM234.289 180.171C234.289 189.561 226.659 197.191 217.269 197.191H41.3086C31.9186 197.191 24.2886 189.561 24.2886 180.171V83.2105C24.2886 73.8206 31.9186 66.1906 41.3086 66.1906H217.269C226.659 66.1906 234.289 73.8206 234.289 83.2105V180.171V180.171Z" fill="#E6E6E6"/>
<path d="M72.7664 294.674L64.5365 290.776C67.912 295.487 70.8207 302.844 72.3779 308.698C75.0144 303.245 79.2646 296.572 83.4716 292.586L74.7735 294.824C80.1332 268.556 100.293 249.698 123.378 249.698V247.698C99.2647 247.698 78.2389 267.346 72.7664 294.674V294.674Z" fill="#3F3D56"/>
<path d="M110.646 334.698H58.6456C56.4401 334.698 54.6456 332.904 54.6456 330.698C54.6456 328.493 56.4401 326.698 58.6456 326.698H110.646C112.851 326.698 114.646 328.493 114.646 330.698C114.646 332.904 112.851 334.698 110.646 334.698V334.698Z" fill="#6C63FF"/>
<path d="M154.912 260.191C161.54 260.191 166.912 254.818 166.912 248.191C166.912 241.563 161.54 236.191 154.912 236.191C148.285 236.191 142.912 241.563 142.912 248.191C142.912 254.818 148.285 260.191 154.912 260.191Z" fill="white"/>
<path opacity="0.7" d="M154.912 260.191C161.54 260.191 166.912 254.818 166.912 248.191C166.912 241.563 161.54 236.191 154.912 236.191C148.285 236.191 142.912 241.563 142.912 248.191C142.912 254.818 148.285 260.191 154.912 260.191Z" fill="#6C63FF"/>
<path d="M90.0217 125.191C96.6491 125.191 102.022 119.818 102.022 113.191C102.022 106.563 96.6491 101.191 90.0217 101.191C83.3943 101.191 78.0217 106.563 78.0217 113.191C78.0217 119.818 83.3943 125.191 90.0217 125.191Z" fill="#CCCCCC"/>
<path opacity="0.7" d="M129.289 125.191C135.916 125.191 141.289 119.818 141.289 113.191C141.289 106.563 135.916 101.191 129.289 101.191C122.661 101.191 117.289 106.563 117.289 113.191C117.289 119.818 122.661 125.191 129.289 125.191Z" fill="#CCCCCC"/>
<path opacity="0.4" d="M168.555 125.191C175.183 125.191 180.555 119.818 180.555 113.191C180.555 106.563 175.183 101.191 168.555 101.191C161.928 101.191 156.555 106.563 156.555 113.191C156.555 119.818 161.928 125.191 168.555 125.191Z" fill="#CCCCCC"/>
<path d="M90.0217 162.191C96.6491 162.191 102.022 156.818 102.022 150.191C102.022 143.563 96.6491 138.191 90.0217 138.191C83.3943 138.191 78.0217 143.563 78.0217 150.191C78.0217 156.818 83.3943 162.191 90.0217 162.191Z" fill="#3F3D56"/>
<path opacity="0.7" d="M129.289 162.191C135.916 162.191 141.289 156.818 141.289 150.191C141.289 143.563 135.916 138.191 129.289 138.191C122.661 138.191 117.289 143.563 117.289 150.191C117.289 156.818 122.661 162.191 129.289 162.191Z" fill="#3F3D56"/>
<path opacity="0.4" d="M168.555 162.191C175.183 162.191 180.555 156.818 180.555 150.191C180.555 143.563 175.183 138.191 168.555 138.191C161.928 138.191 156.555 143.563 156.555 150.191C156.555 156.818 161.928 162.191 168.555 162.191Z" fill="#3F3D56"/>
<path d="M142.912 260.191C149.54 260.191 154.912 254.818 154.912 248.191C154.912 241.563 149.54 236.191 142.912 236.191C136.285 236.191 130.912 241.563 130.912 248.191C130.912 254.818 136.285 260.191 142.912 260.191Z" fill="#6C63FF"/>
</g>
<defs>
<clipPath id="clip0_29_25">
<rect width="259" height="457" fill="white"/>
</clipPath>
</defs>
</svg>
